<?xml version="1.0" ?><svg id="Layer_1" style="enable-background:new 0 0 64 64;" version="1.1" viewBox="0 0 64 64" xml:space="preserve" xmlns="http://www.w3.org/2000/svg" xmlns:xlink="http://www.w3.org/1999/xlink"><style type="text/css">
	.st0{fill:#62BEE7;}
	.st1{fill:#474E5E;}
	.st2{fill:#F3EEE4;}
	.st3{fill:#FFFFFF;}
	.st4{fill:#E8DCCA;}
	.st5{opacity:0.1;fill:#231F20;}
	.st6{fill:#506268;}
	.st7{fill:#EB5151;}
	.st8{fill:#C64444;}
	.st9{fill:#9CCB5B;}
	.st10{fill:#404A4C;}
	.st11{fill:#676767;}
	.st12{fill:#E0E1E5;}
	.st13{fill:#9D9EA0;}
	.st14{fill:#B3B4B7;}
	.st15{opacity:0.1;}
	.st16{fill:#231F20;}
	.st17{fill:#FACC20;}
	.st18{fill:#FDEF34;}
	.st19{fill:#F7A90B;}
	.st20{fill:#20B8EA;}
	.st21{fill:#00A8EA;}
	.st22{fill:#33D3F4;}
	.st23{opacity:0.25;fill:#FFFFFF;}
	.st24{fill:#CACBCE;}
	.st25{fill:#2E3545;}
	.st26{fill:#8DAF4A;}
	.st27{fill:#F9C2AF;}
	.st28{fill:#AFDDF4;}
	.st29{fill:#677177;}
	.st30{fill:#FFEDB3;}
	.st31{fill:#695652;}
	.st32{fill:#30A7BF;}
	.st33{fill:#4D5556;}
	.st34{opacity:0.35;}
	.st35{fill:#FFCB04;}
	.st36{fill:#99E9FA;}
	.st37{opacity:0.2;}
	.st38{opacity:3.000000e-02;}
	.st39{fill:#9ECA5B;}
	.st40{fill:#98BA56;}
	.st41{fill:#40EEFF;}
	.st42{fill:#FF6A52;}
	.st43{opacity:0.1;fill:#FFFFFF;}
	.st44{opacity:0.4;}
	.st45{fill:#57606D;}
	.st46{fill:#BACA5B;}
	.st47{opacity:0.25;}
	.st48{opacity:5.000000e-02;fill:#231F20;}
	.st49{opacity:0.2;fill:#FFFFFF;}
	.st50{opacity:0.3;}
	.st51{fill:#FFD82F;}
	.st52{fill:#F4C121;}
	.st53{fill:#EF9D0A;}
	.st54{fill:#F9E532;}
	.st55{fill:#F4C01E;}
	.st56{fill:#FFE14D;}
	.st57{fill:#B7C156;}
	.st58{fill:#DBA92C;}
	.st59{fill:#363D4D;}
	.st60{fill:#3F4656;}
	.st61{fill:#463E33;}
	.st62{fill:none;}
	.st63{opacity:4.000000e-02;}
	.st64{fill:#4DB6AC;}
	.st65{fill:#CADE49;}
	.st66{fill:#9FD343;}
	.st67{fill:#AAD643;}
	.st68{fill:#82C736;}
	.st69{opacity:0.3;fill:#FFFFFF;}
	.st70{fill:#FFD640;}
	.st71{opacity:0.5;}
	.st72{opacity:0.6;}
</style><g><circle class="st19" cx="32" cy="32" r="32"/><g><path class="st3" d="M48.8,10.5H15.2c-2.6,0-4.7,2.1-4.7,4.7v33.6c0,2.6,2.1,4.7,4.7,4.7h33.6c2.6,0,4.7-2.1,4.7-4.7V15.2    C53.5,12.6,51.4,10.5,48.8,10.5z"/><rect class="st20" height="16.1" width="16.1" x="32.6" y="15.3"/><rect class="st7" height="16.1" width="16.1" x="32.6" y="32.6"/><rect class="st21" height="16.1" width="16.1" x="15.3" y="32.6"/><rect class="st22" height="16.1" width="16.1" x="15.3" y="15.3"/><g><polygon class="st5" points="30.2,30.2 16.5,30.2 15.3,31.4 31.4,31.4 31.4,15.3 30.2,16.5    "/><polygon class="st23" points="16.5,16.5 30.2,16.5 31.4,15.3 15.3,15.3 15.3,31.4 16.5,30.2    "/></g><g><polygon class="st5" points="47.5,30.2 33.8,30.2 32.6,31.4 48.7,31.4 48.7,15.3 47.5,16.5    "/><polygon class="st23" points="33.8,16.5 47.5,16.5 48.7,15.3 32.6,15.3 32.6,31.4 33.8,30.2    "/></g><g><polygon class="st5" points="30.2,47.5 16.5,47.5 15.3,48.7 31.4,48.7 31.4,32.6 30.2,33.8    "/><polygon class="st23" points="16.5,33.8 30.2,33.8 31.4,32.6 15.3,32.6 15.3,48.7 16.5,47.5    "/></g><g><polygon class="st5" points="47.5,47.5 33.8,47.5 32.6,48.7 48.7,48.7 48.7,32.6 47.5,33.8    "/><polygon class="st23" points="33.8,33.8 47.5,33.8 48.7,32.6 32.6,32.6 32.6,48.7 33.8,47.5    "/></g><g><path class="st3" d="M26.9,22.7H24v-2.9c0-0.4-0.3-0.7-0.7-0.7s-0.7,0.3-0.7,0.7v2.9h-2.9c-0.4,0-0.7,0.3-0.7,0.7     s0.3,0.7,0.7,0.7h2.9v2.9c0,0.4,0.3,0.7,0.7,0.7s0.7-0.3,0.7-0.7V24h2.9c0.4,0,0.7-0.3,0.7-0.7S27.2,22.7,26.9,22.7z"/><path class="st3" d="M24.3,40.7l2-2c0.3-0.3,0.3-0.7,0-1c-0.3-0.3-0.7-0.3-1,0l-2,2l-2-2c-0.3-0.3-0.7-0.3-1,0     c-0.3,0.3-0.3,0.7,0,1l2,2l-2,2c-0.3,0.3-0.3,0.7,0,1c0.3,0.3,0.7,0.3,1,0l2-2l2,2c0.3,0.3,0.7,0.3,1,0c0.3-0.3,0.3-0.7,0-1     L24.3,40.7z"/><path class="st3" d="M37.1,24h7.1c0.4,0,0.7-0.3,0.7-0.7s-0.3-0.7-0.7-0.7h-7.1c-0.4,0-0.7,0.3-0.7,0.7S36.8,24,37.1,24z"/><path class="st3" d="M44.2,41.6h-7.1c-0.4,0-0.7,0.3-0.7,0.7c0,0.4,0.3,0.7,0.7,0.7h7.1c0.4,0,0.7-0.3,0.7-0.7     C44.9,41.9,44.6,41.6,44.2,41.6z"/><path class="st3" d="M44.2,38.4h-7.1c-0.4,0-0.7,0.3-0.7,0.7c0,0.4,0.3,0.7,0.7,0.7h7.1c0.4,0,0.7-0.3,0.7-0.7     C44.9,38.7,44.6,38.4,44.2,38.4z"/></g></g></g></svg>