<?xml version="1.0" ?><svg height="60px" version="1.1" viewBox="0 0 60 60" width="60px" xmlns="http://www.w3.org/2000/svg" xmlns:xlink="http://www.w3.org/1999/xlink"><title/><desc/><defs/><g fill="none" fill-rule="evenodd" id="Page-1" stroke="none" stroke-width="1"><g id="020---Star" transform="translate(1.000000, 1.000000)"><g fill-rule="nonzero" id="Icons"><path d="M58,29.005 C57.9846946,36.6805529 54.920601,44.0355874 49.4819139,49.4517695 C44.0432269,54.8679516 36.6755503,57.9015214 29,57.885 C28.33,57.885 27.66,57.865 27,57.805 C11.8148168,56.8242902 9.32587341e-15,44.221819 7.54951657e-15,29.005 C5.77315973e-15,13.788181 11.8148168,1.18570975 27,0.205 C27.66,0.145 28.33,0.125 29,0.125 C36.6755511,0.108475955 44.0432292,3.14204484 49.4819168,8.55822756 C54.9206045,13.9744103 57.9846973,21.3294463 58,29.005 Z" fill="#424242" id="Shape"/><ellipse cx="27" cy="29.005" fill="#9E9E9E" id="Oval" rx="27" ry="28.79999"/><path d="M55,29.005 C54.9517585,43.3249643 43.3200343,54.9030037 29,54.885 C28.16,54.885 27.33,54.845 26.5,54.765 C13.1870891,53.5408138 3.00007599,42.3740773 3.00007599,29.005 C3.00007599,15.6359227 13.1870891,4.46918623 26.5,3.245 C27.33,3.165 28.16,3.125 29,3.125 C43.3200433,3.10697426 54.9517805,14.6850265 55,29.005 Z" fill="#FFB301" id="Shape"/><ellipse cx="26.5" cy="29.005" fill="#FFEB3A" id="Oval" rx="23.5" ry="25.76001"/><path d="M36.47,31.27 C36.2307259,31.5205042 36.1200617,31.8671945 36.16995,32.21 L37.4,39.73 C37.4654408,40.1430029 37.2899071,40.557211 36.9476408,40.7974352 C36.6053746,41.0376594 36.1561629,41.061937 35.79,40.86 L34.1,39.93 L33.16994,34.21 C33.1200517,33.8671945 33.2307159,33.5205042 33.46999,33.27 L38.68999,27.9 C38.9753305,27.6067254 39.0726154,27.1784628 38.9419819,26.7906948 C38.8113483,26.4029267 38.474754,26.1208319 38.07012,26.06 L30.95,24.97 C30.5917851,24.9097222 30.2856173,24.6782295 30.13,24.35 L27.03,17.72 L28.01,15.63 C28.1896964,15.2455961 28.5756685,14.9999631 29,14.9999631 C29.4243315,14.9999631 29.8103036,15.2455961 29.99,15.63 L33.13,22.35 C33.2856075,22.6782165 33.5917538,22.9097071 33.94995,22.97 L41.07007,24.06 C41.474704,24.1208319 41.8112983,24.4029267 41.9419319,24.7906948 C42.0725654,25.1784628 41.9752805,25.6067254 41.68994,25.9 L36.47,31.27 Z" fill="#9E9E9E" id="Shape"/><path d="M33.47,33.27 C33.2307259,33.5205042 33.1200617,33.8671945 33.16995,34.21 L34.1,39.93 L29.53,37.39 C29.2021863,37.2000051 28.7977537,37.2000051 28.46994,37.39 L25.33005,39.13 L22.21,40.86 C21.8438371,41.061937 21.3946254,41.0376594 21.0523592,40.7974352 C20.7100929,40.557211 20.5345592,40.1430029 20.6,39.73 L21.8301,32.21 C21.8800015,31.8672025 21.769356,31.5205133 21.5301,31.27 L16.3101,25.9 C16.25004,25.84 16.21,25.78 16.15995,25.72 C15.9678302,25.4063399 15.94539,25.0173566 16.1001657,24.6836844 C16.2549413,24.3500122 16.5664027,24.1159109 16.92995,24.06 L22.4,23.22 L24.05,22.97 C24.4082149,22.9097222 24.7143827,22.6782295 24.87,22.35 L27.03,17.72 L30.13,24.35 C30.2856173,24.6782295 30.5917851,24.9097222 30.95,24.97 L38.07012,26.06 C38.474754,26.1208319 38.8113483,26.4029267 38.9419819,26.7906948 C39.0726154,27.1784628 38.9753305,27.6067254 38.68999,27.9 L33.47,33.27 Z" fill="#F5F5F5" id="Shape"/></g><g id="Outline" stroke="#000000" stroke-linecap="round" stroke-linejoin="round" stroke-width="2"><ellipse cx="29" cy="29" id="Oval" rx="29" ry="28.875"/><ellipse cx="29" cy="29" id="Oval" rx="25" ry="24.875"/><path d="M29.98674,15.62886 L33.13174,22.35049 C33.2857403,22.680262 33.5941262,22.9114529 33.95385,22.96681 L41.07343,24.058 C41.4778416,24.1211106 41.8132348,24.4046145 41.942804,24.7928715 C42.0723731,25.1811285 41.9744588,25.6092358 41.689,25.90257 L36.4694,31.26916 C36.2276818,31.5179354 36.1180356,31.866473 36.17379,32.20883 L37.39643,39.728 C37.464724,40.1404235 37.291276,40.5555973 36.9498872,40.7968667 C36.6084984,41.0381361 36.1592403,41.0630471 35.79327,40.861 L29.52735,37.38634 C29.1993341,37.2043545 28.8006659,37.2043545 28.47265,37.38634 L22.20673,40.861 C21.8407597,41.0630471 21.3915016,41.0381361 21.0501128,40.7968667 C20.708724,40.5555973 20.535276,40.1404235 20.60357,39.728 L21.82621,32.20888 C21.8819644,31.866523 21.7723182,31.5179854 21.5306,31.26921 L16.311,25.90259 C16.0255412,25.6092558 15.9276269,25.1811485 16.057196,24.7928915 C16.1867652,24.4046345 16.5221584,24.1211306 16.92657,24.05802 L24.04612,22.96681 C24.4058438,22.9114529 24.7142297,22.680262 24.86823,22.35049 L28.01323,15.62886 C28.1919367,15.24524 28.5767824,14.9999629 28.999985,14.9999629 C29.4231876,14.9999629 29.8080333,15.24524 29.98674,15.62886 Z" id="Shape"/></g></g></g></svg>